# xmcd CD database file
#
# Track frame offsets:
#	150
#	24908
#	50314
#	78773
#	101913
#	127919
#	157236
#	185151
#	205324
#
# Disc length: 3168 seconds
#
# Revision: 0
# Processed by: cddbd v1.5.1PL2 Copyright (c) Steve Scherf et al.
# Submitted via: CDex 1.51
#
DISCID=730c5e09
DTITLE=Jimmy Rowles - Grandpa's Vibrato
DYEAR=1993
DGENRE=Jazz
TTITLE0=Evenin'
TTITLE1=D.W.R.
TTITLE2=Honey Keep Your Mind on Me
TTITLE3=Cheek to Cheek
TTITLE4=Grandpa's Vibrato
TTITLE5=In a Sentimental Mood
TTITLE6=Darn That Dream
TTITLE7=Ill Wind
TTITLE8=Cheek to Cheek II
EXTD=YEAR: 1993
EXTT0=
EXTT1=
EXTT2=
EXTT3=
EXTT4=
EXTT5=
EXTT6=
EXTT7=
EXTT8=
PLAYORDER=
